{
	"asset":{
		"generator":"Khronos glTF Blender I/O v4.0.44",
		"version":"2.0"
	},
	"extensionsUsed":[
		"KHR_materials_specular",
		"KHR_materials_ior"
	],
	"scene":0,
	"scenes":[
		{
			"name":"Scene",
			"nodes":[
				0
			]
		}
	],
	"nodes":[
		{
			"mesh":0,
			"name":"Spyro"
		}
	],
	"materials":[
		{
			"doubleSided":true,
			"extensions":{
				"KHR_materials_specular":{
					"specularFactor":0
				},
				"KHR_materials_ior":{
					"ior":1.4499999284744263
				}
			},
			"name":"SpyroMat.001",
			"pbrMetallicRoughness":{
				"baseColorTexture":{
					"index":0
				},
				"metallicFactor":0,
				"roughnessFactor":0.5
			}
		}
	],
	"meshes":[
		{
			"name":"mesh0.001",
			"primitives":[
				{
					"attributes":{
						"COLOR_0":0,
						"POSITION":1,
						"NORMAL":2,
						"TEXCOORD_0":3
					},
					"indices":4,
					"material":0
				}
			]
		}
	],
	"textures":[
		{
			"sampler":0,
			"source":0
		}
	],
	"images":[
		{
			"mimeType":"image/png",
			"name":"SpyroTex",
			"uri":"SpyroTex.png"
		}
	],
	"accessors":[
		{
			"bufferView":0,
			"componentType":5123,
			"count":1293,
			"normalized":true,
			"type":"VEC4"
		},
		{
			"bufferView":1,
			"componentType":5126,
			"count":1293,
			"max":[
				0.3549996614456177,
				1.751960039138794,
				0.6399993896484375
			],
			"min":[
				-0.37749963998794556,
				-0.023038320243358612,
				-1.5949984788894653
			],
			"type":"VEC3"
		},
		{
			"bufferView":2,
			"componentType":5126,
			"count":1293,
			"type":"VEC3"
		},
		{
			"bufferView":3,
			"componentType":5126,
			"count":1293,
			"type":"VEC2"
		},
		{
			"bufferView":4,
			"componentType":5123,
			"count":1293,
			"type":"SCALAR"
		}
	],
	"bufferViews":[
		{
			"buffer":0,
			"byteLength":10344,
			"byteOffset":0,
			"target":34962
		},
		{
			"buffer":0,
			"byteLength":15516,
			"byteOffset":10344,
			"target":34962
		},
		{
			"buffer":0,
			"byteLength":15516,
			"byteOffset":25860,
			"target":34962
		},
		{
			"buffer":0,
			"byteLength":10344,
			"byteOffset":41376,
			"target":34962
		},
		{
			"buffer":0,
			"byteLength":2586,
			"byteOffset":51720,
			"target":34963
		}
	],
	"samplers":[
		{
			"magFilter":9729,
			"minFilter":9987
		}
	],
	"buffers":[
		{
			"byteLength":54308,
			"uri":"spyro_ps1.bin"
		}
	]
}
