{
	"asset":{
		"generator":"Khronos glTF Blender I/O v4.0.44",
		"version":"2.0"
	},
	"scene":0,
	"scenes":[
		{
			"name":"Scene",
			"nodes":[
				0,
				1
			]
		}
	],
	"nodes":[
		{
			"mesh":0,
			"name":"InfinityBridge"
		},
		{
			"mesh":1,
			"name":"FlatBridge"
		}
	],
	"materials":[
		{
			"doubleSided":true,
			"name":"Material",
			"pbrMetallicRoughness":{
				"baseColorTexture":{
					"index":0
				},
				"metallicFactor":0,
				"roughnessFactor":0.5
			}
		}
	],
	"meshes":[
		{
			"name":"InfinityBridge",
			"primitives":[
				{
					"attributes":{
						"POSITION":0,
						"NORMAL":1,
						"TEXCOORD_0":2
					},
					"indices":3,
					"material":0
				}
			]
		},
		{
			"name":"FlatBridge",
			"primitives":[
				{
					"attributes":{
						"POSITION":4,
						"NORMAL":5,
						"TEXCOORD_0":6
					},
					"indices":7,
					"material":0
				}
			]
		}
	],
	"textures":[
		{
			"sampler":0,
			"source":0
		}
	],
	"images":[
		{
			"mimeType":"image/png",
			"name":"bridge_diffuse",
			"uri":"bridge_diffuse.png"
		}
	],
	"accessors":[
		{
			"bufferView":0,
			"componentType":5126,
			"count":6986,
			"max":[
				0.877834141254425,
				1.596339225769043,
				1.5974743366241455
			],
			"min":[
				-0.877834141254425,
				-1.597579002380371,
				-1.596969485282898
			],
			"type":"VEC3"
		},
		{
			"bufferView":1,
			"componentType":5126,
			"count":6986,
			"type":"VEC3"
		},
		{
			"bufferView":2,
			"componentType":5126,
			"count":6986,
			"type":"VEC2"
		},
		{
			"bufferView":3,
			"componentType":5123,
			"count":15588,
			"type":"SCALAR"
		},
		{
			"bufferView":4,
			"componentType":5126,
			"count":1720,
			"max":[
				1.0972926616668701,
				0.29629623889923096,
				1.47000253200531
			],
			"min":[
				-1.097292184829712,
				-0.30598366260528564,
				-1.4549973011016846
			],
			"type":"VEC3"
		},
		{
			"bufferView":5,
			"componentType":5126,
			"count":1720,
			"type":"VEC3"
		},
		{
			"bufferView":6,
			"componentType":5126,
			"count":1720,
			"type":"VEC2"
		},
		{
			"bufferView":7,
			"componentType":5123,
			"count":4224,
			"type":"SCALAR"
		}
	],
	"bufferViews":[
		{
			"buffer":0,
			"byteLength":83832,
			"byteOffset":0,
			"target":34962
		},
		{
			"buffer":0,
			"byteLength":83832,
			"byteOffset":83832,
			"target":34962
		},
		{
			"buffer":0,
			"byteLength":55888,
			"byteOffset":167664,
			"target":34962
		},
		{
			"buffer":0,
			"byteLength":31176,
			"byteOffset":223552,
			"target":34963
		},
		{
			"buffer":0,
			"byteLength":20640,
			"byteOffset":254728,
			"target":34962
		},
		{
			"buffer":0,
			"byteLength":20640,
			"byteOffset":275368,
			"target":34962
		},
		{
			"buffer":0,
			"byteLength":13760,
			"byteOffset":296008,
			"target":34962
		},
		{
			"buffer":0,
			"byteLength":8448,
			"byteOffset":309768,
			"target":34963
		}
	],
	"samplers":[
		{
			"magFilter":9729,
			"minFilter":9987
		}
	],
	"buffers":[
		{
			"byteLength":318216,
			"uri":"bridge.bin"
		}
	]
}
