{
	"asset":{
		"generator":"Khronos glTF Blender I/O v4.0.44",
		"version":"2.0"
	},
	"scene":0,
	"scenes":[
		{
			"name":"Scene",
			"nodes":[
				0,
				1
			]
		}
	],
	"nodes":[
		{
			"mesh":0,
			"name":"Bridge"
		},
		{
			"mesh":1,
			"name":"FlatBridge"
		}
	],
	"materials":[
		{
			"doubleSided":true,
			"name":"Material",
			"pbrMetallicRoughness":{
				"baseColorTexture":{
					"index":0
				},
				"metallicFactor":0,
				"roughnessFactor":0.5
			}
		}
	],
	"meshes":[
		{
			"name":"Bridge",
			"primitives":[
				{
					"attributes":{
						"POSITION":0,
						"NORMAL":1,
						"TEXCOORD_0":2
					},
					"indices":3,
					"material":0
				}
			]
		},
		{
			"name":"Cube.004",
			"primitives":[
				{
					"attributes":{
						"POSITION":4,
						"NORMAL":5,
						"TEXCOORD_0":6
					},
					"indices":7,
					"material":0
				}
			]
		}
	],
	"textures":[
		{
			"sampler":0,
			"source":0
		}
	],
	"images":[
		{
			"mimeType":"image/png",
			"name":"bridge_diffuse",
			"uri":"bridge_diffuse.png"
		}
	],
	"accessors":[
		{
			"bufferView":0,
			"componentType":5126,
			"count":6986,
			"max":[
				0.7315284609794617,
				1.3302826881408691,
				1.3312286138534546
			],
			"min":[
				-0.7315284609794617,
				-1.3313158750534058,
				-1.3308079242706299
			],
			"type":"VEC3"
		},
		{
			"bufferView":1,
			"componentType":5126,
			"count":6986,
			"type":"VEC3"
		},
		{
			"bufferView":2,
			"componentType":5126,
			"count":6986,
			"type":"VEC2"
		},
		{
			"bufferView":3,
			"componentType":5123,
			"count":15588,
			"type":"SCALAR"
		},
		{
			"bufferView":4,
			"componentType":5126,
			"count":2164,
			"max":[
				0.7315284013748169,
				0.1975308358669281,
				0.98000168800354
			],
			"min":[
				-0.7315281629562378,
				-0.20398911833763123,
				-0.9699982404708862
			],
			"type":"VEC3"
		},
		{
			"bufferView":5,
			"componentType":5126,
			"count":2164,
			"type":"VEC3"
		},
		{
			"bufferView":6,
			"componentType":5126,
			"count":2164,
			"type":"VEC2"
		},
		{
			"bufferView":7,
			"componentType":5123,
			"count":5040,
			"type":"SCALAR"
		}
	],
	"bufferViews":[
		{
			"buffer":0,
			"byteLength":83832,
			"byteOffset":0,
			"target":34962
		},
		{
			"buffer":0,
			"byteLength":83832,
			"byteOffset":83832,
			"target":34962
		},
		{
			"buffer":0,
			"byteLength":55888,
			"byteOffset":167664,
			"target":34962
		},
		{
			"buffer":0,
			"byteLength":31176,
			"byteOffset":223552,
			"target":34963
		},
		{
			"buffer":0,
			"byteLength":25968,
			"byteOffset":254728,
			"target":34962
		},
		{
			"buffer":0,
			"byteLength":25968,
			"byteOffset":280696,
			"target":34962
		},
		{
			"buffer":0,
			"byteLength":17312,
			"byteOffset":306664,
			"target":34962
		},
		{
			"buffer":0,
			"byteLength":10080,
			"byteOffset":323976,
			"target":34963
		}
	],
	"samplers":[
		{
			"magFilter":9729,
			"minFilter":9987
		}
	],
	"buffers":[
		{
			"byteLength":334056,
			"uri":"bridge.bin"
		}
	]
}
