{
	"asset":{
		"generator":"Khronos glTF Blender I/O v4.0.44",
		"version":"2.0"
	},
	"scene":0,
	"scenes":[
		{
			"name":"Scene",
			"nodes":[
				0
			]
		}
	],
	"nodes":[
		{
			"mesh":0,
			"name":"Cube"
		}
	],
	"materials":[
		{
			"doubleSided":true,
			"name":"Material",
			"pbrMetallicRoughness":{
				"baseColorTexture":{
					"index":0
				},
				"metallicFactor":0,
				"roughnessFactor":0.5
			}
		}
	],
	"meshes":[
		{
			"name":"Cube",
			"primitives":[
				{
					"attributes":{
						"POSITION":0,
						"NORMAL":1,
						"TEXCOORD_0":2
					},
					"indices":3,
					"material":0
				}
			]
		}
	],
	"textures":[
		{
			"sampler":0,
			"source":0
		}
	],
	"images":[
		{
			"mimeType":"image/png",
			"name":"Untitled",
			"uri":"Untitled.png"
		}
	],
	"accessors":[
		{
			"bufferView":0,
			"componentType":5126,
			"count":4128,
			"max":[
				0.37804707884788513,
				1.000655174255371,
				0.2522910237312317
			],
			"min":[
				-0.37804532051086426,
				-0.9910843372344971,
				-0.25752192735671997
			],
			"type":"VEC3"
		},
		{
			"bufferView":1,
			"componentType":5126,
			"count":4128,
			"type":"VEC3"
		},
		{
			"bufferView":2,
			"componentType":5126,
			"count":4128,
			"type":"VEC2"
		},
		{
			"bufferView":3,
			"componentType":5123,
			"count":6492,
			"type":"SCALAR"
		}
	],
	"bufferViews":[
		{
			"buffer":0,
			"byteLength":49536,
			"byteOffset":0,
			"target":34962
		},
		{
			"buffer":0,
			"byteLength":49536,
			"byteOffset":49536,
			"target":34962
		},
		{
			"buffer":0,
			"byteLength":33024,
			"byteOffset":99072,
			"target":34962
		},
		{
			"buffer":0,
			"byteLength":12984,
			"byteOffset":132096,
			"target":34963
		}
	],
	"samplers":[
		{
			"magFilter":9729,
			"minFilter":9987
		}
	],
	"buffers":[
		{
			"byteLength":145080,
			"uri":"bone.bin"
		}
	]
}
