{
	"asset":{
		"generator":"Khronos glTF Blender I/O v4.0.44",
		"version":"2.0"
	},
	"scene":0,
	"scenes":[
		{
			"name":"Scene",
			"nodes":[
				0
			]
		}
	],
	"nodes":[
		{
			"mesh":0,
			"name":"Donut"
		}
	],
	"materials":[
		{
			"doubleSided":true,
			"name":"Material",
			"pbrMetallicRoughness":{
				"baseColorTexture":{
					"index":0
				},
				"metallicFactor":0,
				"roughnessFactor":0.5
			}
		}
	],
	"meshes":[
		{
			"name":"Donut",
			"primitives":[
				{
					"attributes":{
						"POSITION":0,
						"NORMAL":1,
						"TEXCOORD_0":2
					},
					"indices":3,
					"material":0
				},
				{
					"attributes":{
						"POSITION":4,
						"NORMAL":5,
						"TEXCOORD_0":6
					},
					"indices":7
				}
			]
		}
	],
	"textures":[
		{
			"sampler":0,
			"source":0
		}
	],
	"images":[
		{
			"mimeType":"image/png",
			"name":"donut_diffuse",
			"uri":"donut_diffuse.png"
		}
	],
	"accessors":[
		{
			"bufferView":0,
			"componentType":5126,
			"count":1057,
			"max":[
				0.27326250076293945,
				0.08978072553873062,
				0.2722659409046173
			],
			"min":[
				-0.27257081866264343,
				-0.11689965426921844,
				-0.27478480339050293
			],
			"type":"VEC3"
		},
		{
			"bufferView":1,
			"componentType":5126,
			"count":1057,
			"type":"VEC3"
		},
		{
			"bufferView":2,
			"componentType":5126,
			"count":1057,
			"type":"VEC2"
		},
		{
			"bufferView":3,
			"componentType":5123,
			"count":4608,
			"type":"SCALAR"
		},
		{
			"bufferView":4,
			"componentType":5126,
			"count":3336,
			"max":[
				0.27639657258987427,
				0.09230189770460129,
				0.2726585268974304
			],
			"min":[
				-0.27527549862861633,
				-0.03835655748844147,
				-0.27604058384895325
			],
			"type":"VEC3"
		},
		{
			"bufferView":5,
			"componentType":5126,
			"count":3336,
			"type":"VEC3"
		},
		{
			"bufferView":6,
			"componentType":5126,
			"count":3336,
			"type":"VEC2"
		},
		{
			"bufferView":7,
			"componentType":5123,
			"count":5004,
			"type":"SCALAR"
		}
	],
	"bufferViews":[
		{
			"buffer":0,
			"byteLength":12684,
			"byteOffset":0,
			"target":34962
		},
		{
			"buffer":0,
			"byteLength":12684,
			"byteOffset":12684,
			"target":34962
		},
		{
			"buffer":0,
			"byteLength":8456,
			"byteOffset":25368,
			"target":34962
		},
		{
			"buffer":0,
			"byteLength":9216,
			"byteOffset":33824,
			"target":34963
		},
		{
			"buffer":0,
			"byteLength":40032,
			"byteOffset":43040,
			"target":34962
		},
		{
			"buffer":0,
			"byteLength":40032,
			"byteOffset":83072,
			"target":34962
		},
		{
			"buffer":0,
			"byteLength":26688,
			"byteOffset":123104,
			"target":34962
		},
		{
			"buffer":0,
			"byteLength":10008,
			"byteOffset":149792,
			"target":34963
		}
	],
	"samplers":[
		{
			"magFilter":9729,
			"minFilter":9987
		}
	],
	"buffers":[
		{
			"byteLength":159800,
			"uri":"donut.bin"
		}
	]
}
