{
	"asset":{
		"generator":"Khronos glTF Blender I/O v4.0.44",
		"version":"2.0"
	},
	"scene":0,
	"scenes":[
		{
			"name":"Scene",
			"nodes":[
				13
			]
		}
	],
	"nodes":[
		{
			"name":"Head",
			"scale":[
				1,
				0.9999999403953552,
				1
			],
			"translation":[
				0,
				0.34880030155181885,
				0
			]
		},
		{
			"name":"Foot.L",
			"rotation":[
				-6.218317025741271e-07,
				1.5840105049846898e-07,
				0.6545683145523071,
				0.7560029029846191
			],
			"scale":[
				1,
				1,
				0.9999999403953552
			],
			"translation":[
				4.773028194904327e-09,
				0.2302047610282898,
				2.036344426414871e-09
			]
		},
		{
			"children":[
				1
			],
			"name":"Leg.L",
			"rotation":[
				0.7060756087303162,
				-0.03816615045070648,
				-0.7042725086212158,
				0.06325259059667587
			],
			"scale":[
				0.999999463558197,
				0.9999998807907104,
				0.9999921917915344
			],
			"translation":[
				0.129642054438591,
				0.04744845628738403,
				-0.09281862527132034
			]
		},
		{
			"name":"Fingers.L",
			"rotation":[
				-1.65978860877658e-07,
				1.6925194756822748e-07,
				-0.017802435904741287,
				0.999841570854187
			],
			"scale":[
				0.9999999403953552,
				0.9999998807907104,
				1
			],
			"translation":[
				-2.6671102659747703e-08,
				0.20134574174880981,
				3.53915119433168e-09
			]
		},
		{
			"name":"Thumb.L",
			"rotation":[
				0.7069947719573975,
				-0.012581565417349339,
				-0.012594888918101788,
				0.7069947123527527
			],
			"scale":[
				0.9999999403953552,
				1,
				1
			],
			"translation":[
				-4.0406860080111073e-08,
				-1.1077555761573876e-08,
				3.5396006126120483e-09
			]
		},
		{
			"children":[
				3,
				4
			],
			"name":"Hand.L",
			"rotation":[
				-9.422395123692695e-06,
				-1.2242672431383994e-09,
				-0.999841570854187,
				0.017802439630031586
			],
			"scale":[
				1.0000003576278687,
				1,
				1
			],
			"translation":[
				0.471545547246933,
				0.26208025217056274,
				-0.03385285660624504
			]
		},
		{
			"name":"Foot.R",
			"rotation":[
				-6.218317025741271e-07,
				-1.5840105049846898e-07,
				-0.6545683145523071,
				0.7560029029846191
			],
			"scale":[
				1,
				1,
				0.9999999403953552
			],
			"translation":[
				-4.773028194904327e-09,
				0.2302047610282898,
				2.036344426414871e-09
			]
		},
		{
			"children":[
				6
			],
			"name":"Leg.R",
			"rotation":[
				0.7060756087303162,
				0.03816615045070648,
				0.7042725086212158,
				0.06325259059667587
			],
			"scale":[
				0.999999463558197,
				0.9999998807907104,
				0.9999921917915344
			],
			"translation":[
				-0.129642054438591,
				0.04744845628738403,
				-0.09281862527132034
			]
		},
		{
			"name":"Fingers.R",
			"rotation":[
				-1.65978860877658e-07,
				-1.6925194756822748e-07,
				0.017802435904741287,
				0.999841570854187
			],
			"scale":[
				0.9999999403953552,
				0.9999998807907104,
				1
			],
			"translation":[
				2.6671102659747703e-08,
				0.20134574174880981,
				3.53915119433168e-09
			]
		},
		{
			"name":"Thumb.R",
			"rotation":[
				0.7069947719573975,
				0.012581565417349339,
				0.012594888918101788,
				0.7069947123527527
			],
			"scale":[
				0.9999999403953552,
				1,
				1
			],
			"translation":[
				4.0406860080111073e-08,
				-1.1077555761573876e-08,
				3.5396006126120483e-09
			]
		},
		{
			"children":[
				8,
				9
			],
			"name":"Hand.R",
			"rotation":[
				-9.422395123692695e-06,
				1.2242672431383994e-09,
				0.999841570854187,
				0.017802439630031586
			],
			"scale":[
				1.0000003576278687,
				1,
				1
			],
			"translation":[
				-0.471545547246933,
				0.26208025217056274,
				-0.03385285660624504
			]
		},
		{
			"children":[
				0,
				2,
				5,
				7,
				10
			],
			"name":"Root",
			"translation":[
				0,
				-0.14116062223911285,
				0
			]
		},
		{
			"mesh":0,
			"name":"LilbroMesh",
			"skin":0
		},
		{
			"children":[
				12,
				11
			],
			"name":"Lilbro"
		}
	],
	"animations":[
		{
			"channels":[
				{
					"sampler":0,
					"target":{
						"node":11,
						"path":"translation"
					}
				},
				{
					"sampler":1,
					"target":{
						"node":11,
						"path":"rotation"
					}
				},
				{
					"sampler":2,
					"target":{
						"node":11,
						"path":"scale"
					}
				},
				{
					"sampler":3,
					"target":{
						"node":0,
						"path":"translation"
					}
				},
				{
					"sampler":4,
					"target":{
						"node":0,
						"path":"rotation"
					}
				},
				{
					"sampler":5,
					"target":{
						"node":0,
						"path":"scale"
					}
				},
				{
					"sampler":6,
					"target":{
						"node":2,
						"path":"translation"
					}
				},
				{
					"sampler":7,
					"target":{
						"node":2,
						"path":"rotation"
					}
				},
				{
					"sampler":8,
					"target":{
						"node":2,
						"path":"scale"
					}
				},
				{
					"sampler":9,
					"target":{
						"node":1,
						"path":"translation"
					}
				},
				{
					"sampler":10,
					"target":{
						"node":1,
						"path":"rotation"
					}
				},
				{
					"sampler":11,
					"target":{
						"node":1,
						"path":"scale"
					}
				},
				{
					"sampler":12,
					"target":{
						"node":5,
						"path":"translation"
					}
				},
				{
					"sampler":13,
					"target":{
						"node":5,
						"path":"rotation"
					}
				},
				{
					"sampler":14,
					"target":{
						"node":5,
						"path":"scale"
					}
				},
				{
					"sampler":15,
					"target":{
						"node":3,
						"path":"translation"
					}
				},
				{
					"sampler":16,
					"target":{
						"node":3,
						"path":"rotation"
					}
				},
				{
					"sampler":17,
					"target":{
						"node":3,
						"path":"scale"
					}
				},
				{
					"sampler":18,
					"target":{
						"node":4,
						"path":"translation"
					}
				},
				{
					"sampler":19,
					"target":{
						"node":4,
						"path":"rotation"
					}
				},
				{
					"sampler":20,
					"target":{
						"node":4,
						"path":"scale"
					}
				},
				{
					"sampler":21,
					"target":{
						"node":7,
						"path":"translation"
					}
				},
				{
					"sampler":22,
					"target":{
						"node":7,
						"path":"rotation"
					}
				},
				{
					"sampler":23,
					"target":{
						"node":7,
						"path":"scale"
					}
				},
				{
					"sampler":24,
					"target":{
						"node":6,
						"path":"translation"
					}
				},
				{
					"sampler":25,
					"target":{
						"node":6,
						"path":"rotation"
					}
				},
				{
					"sampler":26,
					"target":{
						"node":6,
						"path":"scale"
					}
				},
				{
					"sampler":27,
					"target":{
						"node":10,
						"path":"translation"
					}
				},
				{
					"sampler":28,
					"target":{
						"node":10,
						"path":"rotation"
					}
				},
				{
					"sampler":29,
					"target":{
						"node":10,
						"path":"scale"
					}
				},
				{
					"sampler":30,
					"target":{
						"node":8,
						"path":"translation"
					}
				},
				{
					"sampler":31,
					"target":{
						"node":8,
						"path":"rotation"
					}
				},
				{
					"sampler":32,
					"target":{
						"node":8,
						"path":"scale"
					}
				},
				{
					"sampler":33,
					"target":{
						"node":9,
						"path":"translation"
					}
				},
				{
					"sampler":34,
					"target":{
						"node":9,
						"path":"rotation"
					}
				},
				{
					"sampler":35,
					"target":{
						"node":9,
						"path":"scale"
					}
				}
			],
			"name":"Idle",
			"samplers":[
				{
					"input":7,
					"interpolation":"STEP",
					"output":8
				},
				{
					"input":7,
					"interpolation":"STEP",
					"output":9
				},
				{
					"input":7,
					"interpolation":"STEP",
					"output":10
				},
				{
					"input":7,
					"interpolation":"STEP",
					"output":11
				},
				{
					"input":12,
					"interpolation":"LINEAR",
					"output":13
				},
				{
					"input":7,
					"interpolation":"STEP",
					"output":14
				},
				{
					"input":7,
					"interpolation":"STEP",
					"output":15
				},
				{
					"input":7,
					"interpolation":"STEP",
					"output":16
				},
				{
					"input":7,
					"interpolation":"STEP",
					"output":17
				},
				{
					"input":7,
					"interpolation":"STEP",
					"output":18
				},
				{
					"input":7,
					"interpolation":"STEP",
					"output":19
				},
				{
					"input":7,
					"interpolation":"STEP",
					"output":20
				},
				{
					"input":12,
					"interpolation":"LINEAR",
					"output":21
				},
				{
					"input":7,
					"interpolation":"STEP",
					"output":22
				},
				{
					"input":7,
					"interpolation":"STEP",
					"output":23
				},
				{
					"input":7,
					"interpolation":"STEP",
					"output":24
				},
				{
					"input":7,
					"interpolation":"STEP",
					"output":25
				},
				{
					"input":7,
					"interpolation":"STEP",
					"output":26
				},
				{
					"input":7,
					"interpolation":"STEP",
					"output":27
				},
				{
					"input":7,
					"interpolation":"STEP",
					"output":28
				},
				{
					"input":7,
					"interpolation":"STEP",
					"output":29
				},
				{
					"input":7,
					"interpolation":"STEP",
					"output":30
				},
				{
					"input":7,
					"interpolation":"STEP",
					"output":31
				},
				{
					"input":7,
					"interpolation":"STEP",
					"output":32
				},
				{
					"input":7,
					"interpolation":"STEP",
					"output":33
				},
				{
					"input":7,
					"interpolation":"STEP",
					"output":34
				},
				{
					"input":7,
					"interpolation":"STEP",
					"output":35
				},
				{
					"input":12,
					"interpolation":"LINEAR",
					"output":36
				},
				{
					"input":7,
					"interpolation":"STEP",
					"output":37
				},
				{
					"input":7,
					"interpolation":"STEP",
					"output":38
				},
				{
					"input":7,
					"interpolation":"STEP",
					"output":39
				},
				{
					"input":7,
					"interpolation":"STEP",
					"output":40
				},
				{
					"input":7,
					"interpolation":"STEP",
					"output":41
				},
				{
					"input":7,
					"interpolation":"STEP",
					"output":42
				},
				{
					"input":7,
					"interpolation":"STEP",
					"output":43
				},
				{
					"input":7,
					"interpolation":"STEP",
					"output":44
				}
			]
		}
	],
	"materials":[
		{
			"doubleSided":true,
			"name":"Material",
			"pbrMetallicRoughness":{
				"baseColorTexture":{
					"index":0
				},
				"metallicFactor":0,
				"roughnessFactor":0.5
			}
		}
	],
	"meshes":[
		{
			"name":"Cube.004",
			"primitives":[
				{
					"attributes":{
						"POSITION":0,
						"NORMAL":1,
						"TEXCOORD_0":2,
						"JOINTS_0":3,
						"WEIGHTS_0":4
					},
					"indices":5,
					"material":0
				}
			]
		}
	],
	"textures":[
		{
			"sampler":0,
			"source":0
		}
	],
	"images":[
		{
			"mimeType":"image/png",
			"name":"lilbro",
			"uri":"lilbro.png"
		}
	],
	"skins":[
		{
			"inverseBindMatrices":6,
			"joints":[
				11,
				0,
				2,
				1,
				5,
				3,
				4,
				7,
				6,
				10,
				8,
				9
			],
			"name":"Lilbro"
		}
	],
	"accessors":[
		{
			"bufferView":0,
			"componentType":5126,
			"count":1769,
			"max":[
				0.5218530893325806,
				0.557282030582428,
				0.3364604115486145
			],
			"min":[
				-0.5212282538414001,
				-0.3857068121433258,
				-0.4153129756450653
			],
			"type":"VEC3"
		},
		{
			"bufferView":1,
			"componentType":5126,
			"count":1769,
			"type":"VEC3"
		},
		{
			"bufferView":2,
			"componentType":5126,
			"count":1769,
			"type":"VEC2"
		},
		{
			"bufferView":3,
			"componentType":5121,
			"count":1769,
			"type":"VEC4"
		},
		{
			"bufferView":4,
			"componentType":5126,
			"count":1769,
			"type":"VEC4"
		},
		{
			"bufferView":5,
			"componentType":5123,
			"count":8220,
			"type":"SCALAR"
		},
		{
			"bufferView":6,
			"componentType":5126,
			"count":12,
			"type":"MAT4"
		},
		{
			"bufferView":7,
			"componentType":5126,
			"count":2,
			"max":[
				1.6666666666666667
			],
			"min":[
				0.041666666666666664
			],
			"type":"SCALAR"
		},
		{
			"bufferView":8,
			"componentType":5126,
			"count":2,
			"type":"VEC3"
		},
		{
			"bufferView":9,
			"componentType":5126,
			"count":2,
			"type":"VEC4"
		},
		{
			"bufferView":10,
			"componentType":5126,
			"count":2,
			"type":"VEC3"
		},
		{
			"bufferView":11,
			"componentType":5126,
			"count":2,
			"type":"VEC3"
		},
		{
			"bufferView":12,
			"componentType":5126,
			"count":40,
			"max":[
				1.6666666666666667
			],
			"min":[
				0.041666666666666664
			],
			"type":"SCALAR"
		},
		{
			"bufferView":13,
			"componentType":5126,
			"count":40,
			"type":"VEC4"
		},
		{
			"bufferView":14,
			"componentType":5126,
			"count":2,
			"type":"VEC3"
		},
		{
			"bufferView":15,
			"componentType":5126,
			"count":2,
			"type":"VEC3"
		},
		{
			"bufferView":16,
			"componentType":5126,
			"count":2,
			"type":"VEC4"
		},
		{
			"bufferView":17,
			"componentType":5126,
			"count":2,
			"type":"VEC3"
		},
		{
			"bufferView":18,
			"componentType":5126,
			"count":2,
			"type":"VEC3"
		},
		{
			"bufferView":19,
			"componentType":5126,
			"count":2,
			"type":"VEC4"
		},
		{
			"bufferView":20,
			"componentType":5126,
			"count":2,
			"type":"VEC3"
		},
		{
			"bufferView":21,
			"componentType":5126,
			"count":40,
			"type":"VEC3"
		},
		{
			"bufferView":22,
			"componentType":5126,
			"count":2,
			"type":"VEC4"
		},
		{
			"bufferView":23,
			"componentType":5126,
			"count":2,
			"type":"VEC3"
		},
		{
			"bufferView":24,
			"componentType":5126,
			"count":2,
			"type":"VEC3"
		},
		{
			"bufferView":25,
			"componentType":5126,
			"count":2,
			"type":"VEC4"
		},
		{
			"bufferView":26,
			"componentType":5126,
			"count":2,
			"type":"VEC3"
		},
		{
			"bufferView":27,
			"componentType":5126,
			"count":2,
			"type":"VEC3"
		},
		{
			"bufferView":28,
			"componentType":5126,
			"count":2,
			"type":"VEC4"
		},
		{
			"bufferView":29,
			"componentType":5126,
			"count":2,
			"type":"VEC3"
		},
		{
			"bufferView":30,
			"componentType":5126,
			"count":2,
			"type":"VEC3"
		},
		{
			"bufferView":31,
			"componentType":5126,
			"count":2,
			"type":"VEC4"
		},
		{
			"bufferView":32,
			"componentType":5126,
			"count":2,
			"type":"VEC3"
		},
		{
			"bufferView":33,
			"componentType":5126,
			"count":2,
			"type":"VEC3"
		},
		{
			"bufferView":34,
			"componentType":5126,
			"count":2,
			"type":"VEC4"
		},
		{
			"bufferView":35,
			"componentType":5126,
			"count":2,
			"type":"VEC3"
		},
		{
			"bufferView":36,
			"componentType":5126,
			"count":40,
			"type":"VEC3"
		},
		{
			"bufferView":37,
			"componentType":5126,
			"count":2,
			"type":"VEC4"
		},
		{
			"bufferView":38,
			"componentType":5126,
			"count":2,
			"type":"VEC3"
		},
		{
			"bufferView":39,
			"componentType":5126,
			"count":2,
			"type":"VEC3"
		},
		{
			"bufferView":40,
			"componentType":5126,
			"count":2,
			"type":"VEC4"
		},
		{
			"bufferView":41,
			"componentType":5126,
			"count":2,
			"type":"VEC3"
		},
		{
			"bufferView":42,
			"componentType":5126,
			"count":2,
			"type":"VEC3"
		},
		{
			"bufferView":43,
			"componentType":5126,
			"count":2,
			"type":"VEC4"
		},
		{
			"bufferView":44,
			"componentType":5126,
			"count":2,
			"type":"VEC3"
		}
	],
	"bufferViews":[
		{
			"buffer":0,
			"byteLength":21228,
			"byteOffset":0,
			"target":34962
		},
		{
			"buffer":0,
			"byteLength":21228,
			"byteOffset":21228,
			"target":34962
		},
		{
			"buffer":0,
			"byteLength":14152,
			"byteOffset":42456,
			"target":34962
		},
		{
			"buffer":0,
			"byteLength":7076,
			"byteOffset":56608,
			"target":34962
		},
		{
			"buffer":0,
			"byteLength":28304,
			"byteOffset":63684,
			"target":34962
		},
		{
			"buffer":0,
			"byteLength":16440,
			"byteOffset":91988,
			"target":34963
		},
		{
			"buffer":0,
			"byteLength":768,
			"byteOffset":108428
		},
		{
			"buffer":0,
			"byteLength":8,
			"byteOffset":109196
		},
		{
			"buffer":0,
			"byteLength":24,
			"byteOffset":109204
		},
		{
			"buffer":0,
			"byteLength":32,
			"byteOffset":109228
		},
		{
			"buffer":0,
			"byteLength":24,
			"byteOffset":109260
		},
		{
			"buffer":0,
			"byteLength":24,
			"byteOffset":109284
		},
		{
			"buffer":0,
			"byteLength":160,
			"byteOffset":109308
		},
		{
			"buffer":0,
			"byteLength":640,
			"byteOffset":109468
		},
		{
			"buffer":0,
			"byteLength":24,
			"byteOffset":110108
		},
		{
			"buffer":0,
			"byteLength":24,
			"byteOffset":110132
		},
		{
			"buffer":0,
			"byteLength":32,
			"byteOffset":110156
		},
		{
			"buffer":0,
			"byteLength":24,
			"byteOffset":110188
		},
		{
			"buffer":0,
			"byteLength":24,
			"byteOffset":110212
		},
		{
			"buffer":0,
			"byteLength":32,
			"byteOffset":110236
		},
		{
			"buffer":0,
			"byteLength":24,
			"byteOffset":110268
		},
		{
			"buffer":0,
			"byteLength":480,
			"byteOffset":110292
		},
		{
			"buffer":0,
			"byteLength":32,
			"byteOffset":110772
		},
		{
			"buffer":0,
			"byteLength":24,
			"byteOffset":110804
		},
		{
			"buffer":0,
			"byteLength":24,
			"byteOffset":110828
		},
		{
			"buffer":0,
			"byteLength":32,
			"byteOffset":110852
		},
		{
			"buffer":0,
			"byteLength":24,
			"byteOffset":110884
		},
		{
			"buffer":0,
			"byteLength":24,
			"byteOffset":110908
		},
		{
			"buffer":0,
			"byteLength":32,
			"byteOffset":110932
		},
		{
			"buffer":0,
			"byteLength":24,
			"byteOffset":110964
		},
		{
			"buffer":0,
			"byteLength":24,
			"byteOffset":110988
		},
		{
			"buffer":0,
			"byteLength":32,
			"byteOffset":111012
		},
		{
			"buffer":0,
			"byteLength":24,
			"byteOffset":111044
		},
		{
			"buffer":0,
			"byteLength":24,
			"byteOffset":111068
		},
		{
			"buffer":0,
			"byteLength":32,
			"byteOffset":111092
		},
		{
			"buffer":0,
			"byteLength":24,
			"byteOffset":111124
		},
		{
			"buffer":0,
			"byteLength":480,
			"byteOffset":111148
		},
		{
			"buffer":0,
			"byteLength":32,
			"byteOffset":111628
		},
		{
			"buffer":0,
			"byteLength":24,
			"byteOffset":111660
		},
		{
			"buffer":0,
			"byteLength":24,
			"byteOffset":111684
		},
		{
			"buffer":0,
			"byteLength":32,
			"byteOffset":111708
		},
		{
			"buffer":0,
			"byteLength":24,
			"byteOffset":111740
		},
		{
			"buffer":0,
			"byteLength":24,
			"byteOffset":111764
		},
		{
			"buffer":0,
			"byteLength":32,
			"byteOffset":111788
		},
		{
			"buffer":0,
			"byteLength":24,
			"byteOffset":111820
		}
	],
	"samplers":[
		{
			"magFilter":9728,
			"minFilter":9984
		}
	],
	"buffers":[
		{
			"byteLength":111844,
			"uri":"lilbro.bin"
		}
	]
}
