{
	"asset":{
		"generator":"Khronos glTF Blender I/O v4.0.44",
		"version":"2.0"
	},
	"scene":0,
	"scenes":[
		{
			"name":"Scene",
			"nodes":[
				0
			]
		}
	],
	"nodes":[
		{
			"mesh":0,
			"name":"Plane.003"
		}
	],
	"materials":[
		{
			"doubleSided":true,
			"name":"Material",
			"pbrMetallicRoughness":{
				"baseColorTexture":{
					"index":0
				},
				"metallicFactor":0,
				"roughnessFactor":0.5
			}
		}
	],
	"meshes":[
		{
			"name":"Plane.003",
			"primitives":[
				{
					"attributes":{
						"POSITION":0,
						"NORMAL":1,
						"TEXCOORD_0":2
					},
					"indices":3,
					"material":0
				}
			]
		}
	],
	"textures":[
		{
			"sampler":0,
			"source":0
		}
	],
	"images":[
		{
			"mimeType":"image/png",
			"name":"Untitled",
			"uri":"Untitled.png"
		}
	],
	"accessors":[
		{
			"bufferView":0,
			"componentType":5126,
			"count":4368,
			"max":[
				5.377657890319824,
				4.747982501983643,
				5.537164211273193
			],
			"min":[
				-5.2691755294799805,
				-0.49110013246536255,
				-5.662105083465576
			],
			"type":"VEC3"
		},
		{
			"bufferView":1,
			"componentType":5126,
			"count":4368,
			"type":"VEC3"
		},
		{
			"bufferView":2,
			"componentType":5126,
			"count":4368,
			"type":"VEC2"
		},
		{
			"bufferView":3,
			"componentType":5123,
			"count":6552,
			"type":"SCALAR"
		}
	],
	"bufferViews":[
		{
			"buffer":0,
			"byteLength":52416,
			"byteOffset":0,
			"target":34962
		},
		{
			"buffer":0,
			"byteLength":52416,
			"byteOffset":52416,
			"target":34962
		},
		{
			"buffer":0,
			"byteLength":34944,
			"byteOffset":104832,
			"target":34962
		},
		{
			"buffer":0,
			"byteLength":13104,
			"byteOffset":139776,
			"target":34963
		}
	],
	"samplers":[
		{
			"magFilter":9729,
			"minFilter":9987
		}
	],
	"buffers":[
		{
			"byteLength":152880,
			"uri":"bush.bin"
		}
	]
}
