{
	"asset":{
		"generator":"Khronos glTF Blender I/O v4.0.44",
		"version":"2.0"
	},
	"scene":0,
	"scenes":[
		{
			"name":"Scene",
			"nodes":[
				8
			]
		}
	],
	"nodes":[
		{
			"mesh":0,
			"name":"Cone.002",
			"rotation":[
				-0.20619529485702515,
				0,
				-0.49779945611953735,
				0.8424245715141296
			],
			"scale":[
				0.29354095458984375,
				0.29354095458984375,
				0.2935408651828766
			],
			"translation":[
				0.6953434944152832,
				0.3691682815551758,
				-0.28988149762153625
			]
		},
		{
			"mesh":0,
			"name":"Cone.003",
			"rotation":[
				-0.4977993667125702,
				0.5956842303276062,
				-0.20619526505470276,
				0.5956841111183167
			],
			"scale":[
				0.29354095458984375,
				0.29354095458984375,
				0.293540894985199
			],
			"translation":[
				-0.28988152742385864,
				0.3691682517528534,
				-0.6953434944152832
			]
		},
		{
			"mesh":0,
			"name":"Cone.004",
			"rotation":[
				0.49779945611953735,
				-0.8424246311187744,
				-0.20619527995586395,
				1.3266316045701387e-08
			],
			"scale":[
				0.29354095458984375,
				0.29354095458984375,
				0.293540894985199
			],
			"translation":[
				-0.6953434944152832,
				0.369168221950531,
				0.2898815870285034
			]
		},
		{
			"mesh":0,
			"name":"Cone.005",
			"rotation":[
				0.20619536936283112,
				-0.5956841707229614,
				-0.4977993667125702,
				0.5956841707229614
			],
			"scale":[
				0.29354095458984375,
				0.29354095458984375,
				0.293540894985199
			],
			"translation":[
				0.2898815870285034,
				0.3691681921482086,
				0.6953434944152832
			]
		},
		{
			"mesh":0,
			"name":"Cone.006",
			"rotation":[
				0,
				-0.3223817050457001,
				-0.5388142466545105,
				0.77829909324646
			],
			"scale":[
				0.188642218708992,
				0.188642218708992,
				0.18864218890666962
			],
			"translation":[
				0.41722577810287476,
				1.0318989753723145,
				0.161328986287117
			]
		},
		{
			"mesh":0,
			"name":"Cone.007",
			"rotation":[
				-0.380999356508255,
				0.32238227128982544,
				-0.3809989392757416,
				0.7782987356185913
			],
			"scale":[
				0.188642218708992,
				0.188642218708992,
				0.1886422038078308
			],
			"translation":[
				0.1613289713859558,
				1.031898856163025,
				-0.41722577810287476
			]
		},
		{
			"mesh":0,
			"name":"Cone.008",
			"rotation":[
				-0.5388141870498657,
				0.7782989740371704,
				0,
				0.32238176465034485
			],
			"scale":[
				0.188642218708992,
				0.188642218708992,
				0.18864218890666962
			],
			"translation":[
				-0.41722577810287476,
				1.0318987369537354,
				-0.1613289713859558
			]
		},
		{
			"mesh":0,
			"name":"Cone.009",
			"rotation":[
				0.38099896907806396,
				-0.7782986164093018,
				-0.38099944591522217,
				0.32238253951072693
			],
			"scale":[
				0.188642218708992,
				0.188642218708992,
				0.18864218890666962
			],
			"translation":[
				-0.1613289713859558,
				1.0318986177444458,
				0.41722577810287476
			]
		},
		{
			"children":[
				0,
				1,
				2,
				3,
				4,
				5,
				6,
				7
			],
			"mesh":0,
			"name":"Cone"
		}
	],
	"materials":[
		{
			"doubleSided":true,
			"name":"Material",
			"pbrMetallicRoughness":{
				"baseColorTexture":{
					"index":0
				},
				"metallicFactor":0,
				"roughnessFactor":0.5
			}
		}
	],
	"meshes":[
		{
			"name":"Cone",
			"primitives":[
				{
					"attributes":{
						"POSITION":0,
						"NORMAL":1,
						"TEXCOORD_0":2
					},
					"indices":3,
					"material":0
				}
			]
		}
	],
	"textures":[
		{
			"sampler":0,
			"source":0
		}
	],
	"images":[
		{
			"mimeType":"image/png",
			"name":"Untitled",
			"uri":"Untitled.png"
		}
	],
	"accessors":[
		{
			"bufferView":0,
			"componentType":5126,
			"count":32,
			"max":[
				1,
				2,
				1
			],
			"min":[
				-1,
				0,
				-1
			],
			"type":"VEC3"
		},
		{
			"bufferView":1,
			"componentType":5126,
			"count":32,
			"type":"VEC3"
		},
		{
			"bufferView":2,
			"componentType":5126,
			"count":32,
			"type":"VEC2"
		},
		{
			"bufferView":3,
			"componentType":5123,
			"count":42,
			"type":"SCALAR"
		}
	],
	"bufferViews":[
		{
			"buffer":0,
			"byteLength":384,
			"byteOffset":0,
			"target":34962
		},
		{
			"buffer":0,
			"byteLength":384,
			"byteOffset":384,
			"target":34962
		},
		{
			"buffer":0,
			"byteLength":256,
			"byteOffset":768,
			"target":34962
		},
		{
			"buffer":0,
			"byteLength":84,
			"byteOffset":1024,
			"target":34963
		}
	],
	"samplers":[
		{
			"magFilter":9729,
			"minFilter":9987
		}
	],
	"buffers":[
		{
			"byteLength":1108,
			"uri":"spikes.bin"
		}
	]
}
