{
	"asset":{
		"generator":"Khronos glTF Blender I/O v4.0.44",
		"version":"2.0"
	},
	"scene":0,
	"scenes":[
		{
			"name":"Scene",
			"nodes":[
				3
			]
		}
	],
	"nodes":[
		{
			"mesh":0,
			"name":"Rocket",
			"scale":[
				0.6032063364982605,
				0.6032063364982605,
				0.6032063364982605
			],
			"translation":[
				-0.0883905440568924,
				0.9083302617073059,
				-0.27203303575515747
			]
		},
		{
			"children":[
				0
			],
			"mesh":1,
			"name":"Icosphere",
			"scale":[
				1.6578075885772705,
				1.6578075885772705,
				1.6578075885772705
			],
			"translation":[
				0.9342195391654968,
				-2.5181632041931152,
				-2.512371063232422
			]
		},
		{
			"mesh":2,
			"name":"Icosphere.002",
			"scale":[
				2.3942291736602783,
				2.3942291736602783,
				2.3942291736602783
			],
			"translation":[
				-2.885504722595215,
				-2.8415842056274414,
				-0.43108582496643066
			]
		},
		{
			"children":[
				1,
				2
			],
			"mesh":3,
			"name":"Icosphere.001",
			"translation":[
				-0.9342195391654968,
				2.5181632041931152,
				2.512371063232422
			]
		}
	],
	"materials":[
		{
			"doubleSided":true,
			"name":"Material.003",
			"pbrMetallicRoughness":{
				"baseColorFactor":[
					0.7999998927116394,
					0.046020787209272385,
					0.09824882447719574,
					1
				],
				"metallicFactor":0,
				"roughnessFactor":0.5
			}
		},
		{
			"doubleSided":true,
			"name":"Material.001",
			"pbrMetallicRoughness":{
				"baseColorFactor":[
					0.7999997735023499,
					0.5916019082069397,
					0.13031631708145142,
					1
				],
				"metallicFactor":0,
				"roughnessFactor":0.5
			}
		},
		{
			"doubleSided":true,
			"name":"Material",
			"pbrMetallicRoughness":{
				"baseColorFactor":[
					0.18640637397766113,
					0.7999998927116394,
					0.04287262260913849,
					1
				],
				"metallicFactor":0,
				"roughnessFactor":0.5
			}
		}
	],
	"meshes":[
		{
			"name":"Rocket",
			"primitives":[
				{
					"attributes":{
						"POSITION":0,
						"NORMAL":1,
						"TEXCOORD_0":2
					},
					"indices":3,
					"material":0
				},
				{
					"attributes":{
						"POSITION":4,
						"NORMAL":5,
						"TEXCOORD_0":6
					},
					"indices":7,
					"material":1
				}
			]
		},
		{
			"name":"Icosphere",
			"primitives":[
				{
					"attributes":{
						"POSITION":8,
						"NORMAL":9,
						"TEXCOORD_0":10
					},
					"indices":11,
					"material":2
				}
			]
		},
		{
			"name":"Icosphere.002",
			"primitives":[
				{
					"attributes":{
						"POSITION":12,
						"NORMAL":13,
						"TEXCOORD_0":14
					},
					"indices":11,
					"material":0
				}
			]
		},
		{
			"name":"Icosphere.001",
			"primitives":[
				{
					"attributes":{
						"POSITION":15,
						"NORMAL":16,
						"TEXCOORD_0":17
					},
					"indices":11,
					"material":1
				}
			]
		}
	],
	"accessors":[
		{
			"bufferView":0,
			"componentType":5126,
			"count":156,
			"max":[
				0.19119836390018463,
				1.6891909837722778,
				0.05735859274864197
			],
			"min":[
				-0.42107945680618286,
				0.41040241718292236,
				-0.6343045234680176
			],
			"type":"VEC3"
		},
		{
			"bufferView":1,
			"componentType":5126,
			"count":156,
			"type":"VEC3"
		},
		{
			"bufferView":2,
			"componentType":5126,
			"count":156,
			"type":"VEC2"
		},
		{
			"bufferView":3,
			"componentType":5123,
			"count":234,
			"type":"SCALAR"
		},
		{
			"bufferView":4,
			"componentType":5126,
			"count":198,
			"max":[
				0.29458531737327576,
				1.51056706905365,
				0.26026487350463867
			],
			"min":[
				-0.42107945680618286,
				-0.089520663022995,
				-0.6343045234680176
			],
			"type":"VEC3"
		},
		{
			"bufferView":5,
			"componentType":5126,
			"count":198,
			"type":"VEC3"
		},
		{
			"bufferView":6,
			"componentType":5126,
			"count":198,
			"type":"VEC2"
		},
		{
			"bufferView":7,
			"componentType":5123,
			"count":300,
			"type":"SCALAR"
		},
		{
			"bufferView":8,
			"componentType":5126,
			"count":240,
			"max":[
				0.9510578513145447,
				1,
				0.9999999403953552
			],
			"min":[
				-0.9510578513145447,
				-1,
				-0.9999999403953552
			],
			"type":"VEC3"
		},
		{
			"bufferView":9,
			"componentType":5126,
			"count":240,
			"type":"VEC3"
		},
		{
			"bufferView":10,
			"componentType":5126,
			"count":240,
			"type":"VEC2"
		},
		{
			"bufferView":11,
			"componentType":5123,
			"count":240,
			"type":"SCALAR"
		},
		{
			"bufferView":12,
			"componentType":5126,
			"count":240,
			"max":[
				0.9510578513145447,
				1,
				0.9999999403953552
			],
			"min":[
				-0.9510578513145447,
				-1,
				-0.9999999403953552
			],
			"type":"VEC3"
		},
		{
			"bufferView":13,
			"componentType":5126,
			"count":240,
			"type":"VEC3"
		},
		{
			"bufferView":14,
			"componentType":5126,
			"count":240,
			"type":"VEC2"
		},
		{
			"bufferView":15,
			"componentType":5126,
			"count":240,
			"max":[
				0.9510578513145447,
				1,
				0.9999999403953552
			],
			"min":[
				-0.9510578513145447,
				-1,
				-0.9999999403953552
			],
			"type":"VEC3"
		},
		{
			"bufferView":16,
			"componentType":5126,
			"count":240,
			"type":"VEC3"
		},
		{
			"bufferView":17,
			"componentType":5126,
			"count":240,
			"type":"VEC2"
		}
	],
	"bufferViews":[
		{
			"buffer":0,
			"byteLength":1872,
			"byteOffset":0,
			"target":34962
		},
		{
			"buffer":0,
			"byteLength":1872,
			"byteOffset":1872,
			"target":34962
		},
		{
			"buffer":0,
			"byteLength":1248,
			"byteOffset":3744,
			"target":34962
		},
		{
			"buffer":0,
			"byteLength":468,
			"byteOffset":4992,
			"target":34963
		},
		{
			"buffer":0,
			"byteLength":2376,
			"byteOffset":5460,
			"target":34962
		},
		{
			"buffer":0,
			"byteLength":2376,
			"byteOffset":7836,
			"target":34962
		},
		{
			"buffer":0,
			"byteLength":1584,
			"byteOffset":10212,
			"target":34962
		},
		{
			"buffer":0,
			"byteLength":600,
			"byteOffset":11796,
			"target":34963
		},
		{
			"buffer":0,
			"byteLength":2880,
			"byteOffset":12396,
			"target":34962
		},
		{
			"buffer":0,
			"byteLength":2880,
			"byteOffset":15276,
			"target":34962
		},
		{
			"buffer":0,
			"byteLength":1920,
			"byteOffset":18156,
			"target":34962
		},
		{
			"buffer":0,
			"byteLength":480,
			"byteOffset":20076,
			"target":34963
		},
		{
			"buffer":0,
			"byteLength":2880,
			"byteOffset":20556,
			"target":34962
		},
		{
			"buffer":0,
			"byteLength":2880,
			"byteOffset":23436,
			"target":34962
		},
		{
			"buffer":0,
			"byteLength":1920,
			"byteOffset":26316,
			"target":34962
		},
		{
			"buffer":0,
			"byteLength":2880,
			"byteOffset":28236,
			"target":34962
		},
		{
			"buffer":0,
			"byteLength":2880,
			"byteOffset":31116,
			"target":34962
		},
		{
			"buffer":0,
			"byteLength":1920,
			"byteOffset":33996,
			"target":34962
		}
	],
	"buffers":[
		{
			"byteLength":35916,
			"uri":"planets.bin"
		}
	]
}
