{
	"asset":{
		"generator":"Khronos glTF Blender I/O v4.0.44",
		"version":"2.0"
	},
	"scene":0,
	"scenes":[
		{
			"name":"Scene",
			"nodes":[
				2
			]
		}
	],
	"nodes":[
		{
			"mesh":0,
			"name":"Suzanne",
			"rotation":[
				-0.3234550654888153,
				-0.26577043533325195,
				-0.1828206330537796,
				0.8895615339279175
			],
			"scale":[
				1.5642729997634888,
				1.5642729997634888,
				1.5642729997634888
			],
			"translation":[
				-2.097592830657959,
				1.1729298830032349,
				0.847920298576355
			]
		},
		{
			"mesh":0,
			"name":"Suzanne.001",
			"rotation":[
				-0.36352717876434326,
				0.014839572831988335,
				-0.07677598297595978,
				0.9282959699630737
			],
			"scale":[
				2.582176923751831,
				2.582176446914673,
				2.582176923751831
			],
			"translation":[
				2.2248804569244385,
				1.1752948760986328,
				-0.3245273530483246
			]
		},
		{
			"children":[
				0,
				1
			],
			"mesh":1,
			"name":"Cube"
		}
	],
	"materials":[
		{
			"doubleSided":true,
			"name":"Material",
			"pbrMetallicRoughness":{
				"baseColorTexture":{
					"index":0
				},
				"metallicFactor":0,
				"roughnessFactor":0.5
			}
		}
	],
	"meshes":[
		{
			"name":"Suzanne",
			"primitives":[
				{
					"attributes":{
						"POSITION":0,
						"NORMAL":1,
						"TEXCOORD_0":2
					},
					"indices":3,
					"material":0
				}
			]
		},
		{
			"name":"Cube",
			"primitives":[
				{
					"attributes":{
						"POSITION":4,
						"NORMAL":5,
						"TEXCOORD_0":6
					},
					"indices":7,
					"material":0
				}
			]
		}
	],
	"textures":[
		{
			"sampler":0,
			"source":0
		}
	],
	"images":[
		{
			"mimeType":"image/png",
			"name":"Untitled",
			"uri":"Untitled.png"
		}
	],
	"accessors":[
		{
			"bufferView":0,
			"componentType":5126,
			"count":1966,
			"max":[
				1.3671875,
				0.984375,
				0.8515625
			],
			"min":[
				-1.3671875,
				-0.984375,
				-0.8515625
			],
			"type":"VEC3"
		},
		{
			"bufferView":1,
			"componentType":5126,
			"count":1966,
			"type":"VEC3"
		},
		{
			"bufferView":2,
			"componentType":5126,
			"count":1966,
			"type":"VEC2"
		},
		{
			"bufferView":3,
			"componentType":5123,
			"count":2904,
			"type":"SCALAR"
		},
		{
			"bufferView":4,
			"componentType":5126,
			"count":24,
			"max":[
				4.3403000831604,
				0.3363834619522095,
				4.174172401428223
			],
			"min":[
				-3.6596999168395996,
				-0.19999998807907104,
				-3.8258273601531982
			],
			"type":"VEC3"
		},
		{
			"bufferView":5,
			"componentType":5126,
			"count":24,
			"type":"VEC3"
		},
		{
			"bufferView":6,
			"componentType":5126,
			"count":24,
			"type":"VEC2"
		},
		{
			"bufferView":7,
			"componentType":5123,
			"count":36,
			"type":"SCALAR"
		}
	],
	"bufferViews":[
		{
			"buffer":0,
			"byteLength":23592,
			"byteOffset":0,
			"target":34962
		},
		{
			"buffer":0,
			"byteLength":23592,
			"byteOffset":23592,
			"target":34962
		},
		{
			"buffer":0,
			"byteLength":15728,
			"byteOffset":47184,
			"target":34962
		},
		{
			"buffer":0,
			"byteLength":5808,
			"byteOffset":62912,
			"target":34963
		},
		{
			"buffer":0,
			"byteLength":288,
			"byteOffset":68720,
			"target":34962
		},
		{
			"buffer":0,
			"byteLength":288,
			"byteOffset":69008,
			"target":34962
		},
		{
			"buffer":0,
			"byteLength":192,
			"byteOffset":69296,
			"target":34962
		},
		{
			"buffer":0,
			"byteLength":72,
			"byteOffset":69488,
			"target":34963
		}
	],
	"samplers":[
		{
			"magFilter":9729,
			"minFilter":9987
		}
	],
	"buffers":[
		{
			"byteLength":69560,
			"uri":"monkey_stage.bin"
		}
	]
}
